<?xml version="1.0" encoding="UTF-8" standalone="no"?>
<svg
   xmlns:dc="http://purl.org/dc/elements/1.1/"
   xmlns:cc="http://creativecommons.org/ns#"
   xmlns:rdf="http://www.w3.org/1999/02/22-rdf-syntax-ns#"
   xmlns:svg="http://www.w3.org/2000/svg"
   xmlns="http://www.w3.org/2000/svg"
   xmlns:sodipodi="http://sodipodi.sourceforge.net/DTD/sodipodi-0.dtd"
   xmlns:inkscape="http://www.inkscape.org/namespaces/inkscape"
   width="280mm"
   height="280mm"
   viewBox="0 0 280 280"
   version="1.1"
   id="svg8"
   inkscape:version="1.0 (4035a4fb49, 2020-05-01)"
   sodipodi:docname="front_fix.svg">
  <defs
     id="defs2" />
  <sodipodi:namedview
     id="base"
     pagecolor="#ffffff"
     bordercolor="#666666"
     borderopacity="1.0"
     inkscape:pageopacity="0.0"
     inkscape:pageshadow="2"
     inkscape:zoom="1.979899"
     inkscape:cx="983.13373"
     inkscape:cy="527.78923"
     inkscape:document-units="mm"
     inkscape:current-layer="layer1"
     inkscape:document-rotation="0"
     showgrid="false"
     inkscape:window-width="1920"
     inkscape:window-height="1017"
     inkscape:window-x="1912"
     inkscape:window-y="-8"
     inkscape:window-maximized="1" />
  <metadata
     id="metadata5">
    <rdf:RDF>
      <cc:Work
         rdf:about="">
        <dc:format>image/svg+xml</dc:format>
        <dc:type
           rdf:resource="http://purl.org/dc/dcmitype/StillImage" />
        <dc:title></dc:title>
      </cc:Work>
    </rdf:RDF>
  </metadata>
  <g
     inkscape:label="Backplate"
     id="layer3"
     inkscape:groupmode="layer">
    <rect
       y="0.5"
       x="0.5"
       height="280"
       width="280"
       id="rect1280"
       style="fill:#ffffff;stroke:#000000;stroke-width:1;stroke-miterlimit:4;stroke-dasharray:none" />
  </g>
  <g
     inkscape:label="Ebene 1"
     inkscape:groupmode="layer"
     id="layer1"
     style="display:inline" />
  <g
     inkscape:groupmode="layer"
     id="layer2"
     inkscape:label="Letters">
    <g
       style="font-size:16.9333px;line-height:1.25;font-family:Discovery;-inkscape-font-specification:Discovery;letter-spacing:0px;word-spacing:0px;display:inline;stroke-width:0.264583"
       id="text20"
       aria-label="E">
      <path
         id="path243"
         style="stroke-width:0.264583"
         d="m 52.80474,49.376151 h -5.217243 v 4.266398 h 6.0606 v 1.29811 H 46.000001 V 42.902141 h 7.565414 v 1.306377 h -5.977918 v 3.869524 h 5.217243 z" />
    </g>
    <g
       style="font-size:16.9333px;line-height:1.25;font-family:Discovery;-inkscape-font-specification:Discovery;letter-spacing:0px;word-spacing:0px;display:inline;stroke-width:0.264583"
       id="text24"
       aria-label="S">
      <path
         id="path246"
         style="stroke-width:0.264583"
         d="m 67.763308,49.409225 q -2.042249,-0.587043 -2.976557,-1.438669 -0.92604,-0.859894 -0.92604,-2.116662 0,-1.422133 1.132745,-2.348173 1.141014,-0.934308 2.960021,-0.934308 1.240231,0 2.207612,0.479556 0.975649,0.479557 1.504815,1.322914 0.537434,0.843358 0.537434,1.843812 h -1.595765 q 0,-1.091404 -0.69453,-1.71152 -0.69453,-0.628384 -1.959566,-0.628384 -1.174087,0 -1.835544,0.520897 -0.653189,0.512629 -0.653189,1.430401 0,0.735871 0.620116,1.2485 0.628385,0.504361 2.124931,0.92604 1.504815,0.421679 2.348173,0.934308 0.851626,0.504361 1.256768,1.182354 0.413411,0.677994 0.413411,1.595765 0,1.463474 -1.141014,2.348173 -1.141013,0.876431 -3.05097,0.876431 -1.240232,0 -2.3151,-0.471289 -1.074868,-0.479556 -1.661911,-1.306377 -0.578775,-0.826822 -0.578775,-1.876885 h 1.595765 q 0,1.091405 0.802017,1.728057 0.810285,0.628384 2.158004,0.628384 1.256768,0 1.926493,-0.512629 0.669726,-0.512629 0.669726,-1.397328 0,-0.884699 -0.620116,-1.364255 -0.620116,-0.487825 -2.248954,-0.959113 z" />
    </g>
    <g
       style="font-size:16.9333px;line-height:1.25;font-family:Discovery;-inkscape-font-specification:Discovery;letter-spacing:0px;word-spacing:0px;display:inline;stroke-width:0.264583"
       id="text28"
       aria-label="I">
      <path
         id="path249"
         style="stroke-width:0.264583"
         d="m 104.7084,54.940659 h -1.5875 V 42.902141 h 1.5875 z" />
    </g>
    <g
       style="font-size:16.9333px;line-height:1.25;font-family:Discovery;-inkscape-font-specification:Discovery;letter-spacing:0px;word-spacing:0px;display:inline;stroke-width:0.264583"
       id="text32"
       aria-label="S">
      <path
         id="path252"
         style="stroke-width:0.264583"
         d="m 121.85391,49.409225 q -2.04224,-0.587043 -2.97655,-1.438669 -0.92604,-0.859894 -0.92604,-2.116662 0,-1.422133 1.13274,-2.348173 1.14102,-0.934308 2.96002,-0.934308 1.24024,0 2.20762,0.479556 0.97565,0.479557 1.50481,1.322914 0.53743,0.843358 0.53743,1.843812 h -1.59576 q 0,-1.091404 -0.69453,-1.71152 -0.69453,-0.628384 -1.95957,-0.628384 -1.17408,0 -1.83554,0.520897 -0.65319,0.512629 -0.65319,1.430401 0,0.735871 0.62012,1.2485 0.62838,0.504361 2.12493,0.92604 1.50481,0.421679 2.34817,0.934308 0.85163,0.504361 1.25677,1.182354 0.41341,0.677994 0.41341,1.595765 0,1.463474 -1.14101,2.348173 -1.14102,0.876431 -3.05097,0.876431 -1.24024,0 -2.3151,-0.471289 -1.07487,-0.479556 -1.66192,-1.306377 -0.57877,-0.826822 -0.57877,-1.876885 h 1.59577 q 0,1.091405 0.80201,1.728057 0.81029,0.628384 2.15801,0.628384 1.25676,0 1.92649,-0.512629 0.66972,-0.512629 0.66972,-1.397328 0,-0.884699 -0.62011,-1.364255 -0.62012,-0.487825 -2.24896,-0.959113 z" />
    </g>
    <g
       style="font-size:16.9333px;line-height:1.25;font-family:Discovery;-inkscape-font-specification:Discovery;letter-spacing:0px;word-spacing:0px;display:inline;stroke-width:0.264583"
       id="text36"
       aria-label="T">
      <path
         id="path255"
         style="stroke-width:0.264583"
         d="m 144.63005,44.208518 h -3.86952 V 54.940659 H 139.1813 V 44.208518 h -3.86126 v -1.306377 h 9.31001 z" />
    </g>
    <g
       style="font-size:16.9333px;line-height:1.25;font-family:Discovery;-inkscape-font-specification:Discovery;letter-spacing:0px;word-spacing:0px;display:inline;stroke-width:0.264583"
       id="text40"
       aria-label="K">
      <path
         id="path258"
         style="stroke-width:0.264583"
         d="m 84.330026,49.343078 -1.471742,1.52962 v 4.067961 H 81.270787 V 42.902141 h 1.587497 v 5.953113 l 5.349533,-5.953113 h 1.918226 l -4.737686,5.31646 5.109755,6.722058 h -1.901689 z" />
    </g>
    <g
       style="font-size:16.9333px;line-height:1.25;font-family:Discovery;-inkscape-font-specification:Discovery;letter-spacing:0px;word-spacing:0px;display:inline;stroke-width:0.264583"
       id="text44"
       aria-label="L">
      <path
         id="path261"
         style="stroke-width:0.264583"
         d="m 155.95061,53.642549 h 5.70507 v 1.29811 h -7.30083 V 42.902141 h 1.59576 z" />
    </g>
    <g
       style="font-size:16.9333px;line-height:1.25;font-family:Discovery;-inkscape-font-specification:Discovery;letter-spacing:0px;word-spacing:0px;display:inline;stroke-width:0.264583"
       id="text48"
       aria-label="F">
      <path
         id="path264"
         style="stroke-width:0.264583"
         d="m 233.03647,49.624198 h -5.05187 v 5.316461 h -1.5875 V 42.902141 h 7.45793 v 1.306377 h -5.87043 v 4.11757 h 5.05187 z" />
    </g>
    <g
       style="font-size:16.9333px;line-height:1.25;font-family:Discovery;-inkscape-font-specification:Discovery;letter-spacing:0px;word-spacing:0px;display:inline;stroke-width:0.264583"
       id="text52"
       aria-label="Ü">
      <path
         id="path267"
         style="stroke-width:0.264583"
         d="m 198.42303,42.736777 v 8.185531 q -0.008,1.703252 -1.07487,2.786388 -1.05833,1.083136 -2.87734,1.215427 l -0.42168,0.01654 q -1.9761,0 -3.15019,-1.0666 -1.17408,-1.066599 -1.19062,-2.935216 v -8.202067 h 1.57096 v 8.152458 q 0,1.306378 0.71934,2.033981 0.71933,0.719334 2.05051,0.719334 1.34772,0 2.05879,-0.719334 0.71933,-0.719335 0.71933,-2.025713 v -8.160726 z m -7.01972,-1.860348 q 0,-0.372069 0.22325,-0.620116 0.23151,-0.256314 0.67799,-0.256314 0.44648,0 0.67799,0.256314 0.23151,0.248047 0.23151,0.620116 0,0.37207 -0.23151,0.620116 -0.23151,0.248047 -0.67799,0.248047 -0.44648,0 -0.67799,-0.248047 -0.22325,-0.248046 -0.22325,-0.620116 z m 3.55534,0.01654 q 0,-0.37207 0.22324,-0.628384 0.23151,-0.256315 0.67799,-0.256315 0.44648,0 0.67799,0.256315 0.23151,0.256314 0.23151,0.628384 0,0.372069 -0.23151,0.620116 -0.23151,0.248046 -0.67799,0.248046 -0.44648,0 -0.67799,-0.248046 -0.22324,-0.248047 -0.22324,-0.620116 z" />
    </g>
    <g
       style="font-size:16.9333px;line-height:1.25;font-family:Discovery;-inkscape-font-specification:Discovery;letter-spacing:0px;word-spacing:0px;display:inline;stroke-width:0.264583"
       id="text56"
       aria-label="N">
      <path
         id="path270"
         style="stroke-width:0.264583"
         d="m 216.72195,54.940659 h -1.59576 l -6.0606,-9.276935 v 9.276935 h -1.59577 V 42.902141 h 1.59577 l 6.07713,9.318276 v -9.318276 h 1.57923 z" />
    </g>
    <g
       style="font-size:16.9333px;line-height:1.25;font-family:Discovery;-inkscape-font-specification:Discovery;letter-spacing:0px;word-spacing:0px;display:inline;stroke-width:0.264583"
       id="text60"
       aria-label="F">
      <path
         id="path273"
         style="stroke-width:0.264583"
         d="m 178.9459,49.624198 h -5.05188 v 5.316461 h -1.5875 V 42.902141 h 7.45793 v 1.306377 h -5.87043 v 4.11757 h 5.05188 z" />
    </g>
    <g
       style="font-size:16.9333px;line-height:1.25;font-family:Discovery;-inkscape-font-specification:Discovery;letter-spacing:0px;word-spacing:0px;display:inline;stroke-width:0.264583"
       id="text889"
       aria-label="Z">
      <path
         id="path276"
         style="stroke-width:0.264583"
         d="m 47.318782,74.208971 h 6.887421 v 1.298109 h -8.764306 v -1.190623 l 6.598034,-9.541517 h -6.490547 v -1.306378 h 8.392236 v 1.165818 z" />
    </g>
    <g
       style="font-size:16.9333px;line-height:1.25;font-family:Discovery;-inkscape-font-specification:Discovery;letter-spacing:0px;word-spacing:0px;display:inline;stroke-width:0.264583"
       id="text893"
       aria-label="E">
      <path
         id="path279"
         style="stroke-width:0.264583"
         d="m 70.834948,69.942573 h -5.217242 v 4.266398 h 6.0606 V 75.50708 H 64.030209 V 63.468562 h 7.565415 v 1.306378 h -5.977918 v 3.869523 h 5.217242 z" />
    </g>
    <g
       style="font-size:16.9333px;line-height:1.25;font-family:Discovery;-inkscape-font-specification:Discovery;letter-spacing:0px;word-spacing:0px;display:inline;stroke-width:0.264583"
       id="text897"
       aria-label="H">
      <path
         id="path282"
         style="stroke-width:0.264583"
         d="M 90.510512,75.50708 H 88.914747 V 69.942573 H 82.845878 V 75.50708 H 81.258381 V 63.468562 h 1.587497 v 5.175901 h 6.068869 v -5.175901 h 1.595765 z" />
    </g>
    <g
       style="font-size:16.9333px;line-height:1.25;font-family:Discovery;-inkscape-font-specification:Discovery;letter-spacing:0px;word-spacing:0px;display:inline;stroke-width:0.264583"
       id="text901"
       aria-label="N">
      <path
         id="path285"
         style="stroke-width:0.264583"
         d="m 108.54072,75.50708 h -1.59577 l -6.0606,-9.276935 V 75.50708 H 99.288586 V 63.468562 h 1.595764 l 6.07714,9.318276 v -9.318276 h 1.57923 z" />
    </g>
    <g
       style="font-size:16.9333px;line-height:1.25;font-family:Discovery;-inkscape-font-specification:Discovery;letter-spacing:0px;word-spacing:0px;display:inline;stroke-width:0.264583"
       id="text905"
       aria-label="Z">
      <path
         id="path288"
         style="stroke-width:0.264583"
         d="m 119.4396,74.208971 h 6.88742 v 1.298109 h -8.76431 v -1.190623 l 6.59804,-9.541517 h -6.49055 v -1.306378 h 8.39224 v 1.165818 z" />
    </g>
    <g
       style="font-size:16.9333px;line-height:1.25;font-family:Discovery;-inkscape-font-specification:Discovery;letter-spacing:0px;word-spacing:0px;display:inline;stroke-width:0.264583"
       id="text909"
       aria-label="W">
      <path
         id="path291"
         style="stroke-width:0.264583"
         d="m 136.38664,71.71197 0.23151,1.587497 0.339,-1.430401 2.38125,-8.400504 h 1.33945 l 2.32336,8.400504 0.33073,1.455206 0.25632,-1.62057 1.86861,-8.23514 h 1.59577 l -2.91868,12.038518 h -1.44694 l -2.48046,-8.772574 -0.19017,-0.917771 -0.19017,0.917771 -2.57141,8.772574 h -1.44694 l -2.91041,-12.038518 h 1.58749 z" />
    </g>
    <g
       style="font-size:16.9333px;line-height:1.25;font-family:Discovery;-inkscape-font-specification:Discovery;letter-spacing:0px;word-spacing:0px;display:inline;stroke-width:0.264583"
       id="text913"
       aria-label="A">
      <path
         id="path294"
         style="stroke-width:0.264583"
         d="m 157.48024,72.365159 h 3.0427 l 1.14928,3.141921 h 1.62884 l -4.6054,-12.038518 h -1.38906 l -4.59712,12.038518 h 1.6371 l 1.13275,-3.141921 2.5218,-6.93703 2.05052,5.630653 h -2.09186 z" />
    </g>
    <g
       style="font-size:16.9333px;line-height:1.25;font-family:Discovery;-inkscape-font-specification:Discovery;letter-spacing:0px;word-spacing:0px;display:inline;stroke-width:0.264583"
       id="text917"
       aria-label="N">
      <path
         id="path297"
         style="stroke-width:0.264583"
         d="m 180.66156,75.50708 h -1.59577 l -6.0606,-9.276935 v 9.276935 h -1.59576 V 63.468562 h 1.59576 l 6.07714,9.318276 v -9.318276 h 1.57923 z" />
    </g>
    <g
       style="font-size:16.9333px;line-height:1.25;font-family:Discovery;-inkscape-font-specification:Discovery;letter-spacing:0px;word-spacing:0px;display:inline;stroke-width:0.264583"
       id="text921"
       aria-label="Z">
      <path
         id="path300"
         style="stroke-width:0.264583"
         d="m 191.56041,74.208971 h 6.88742 v 1.298109 h -8.76431 v -1.190623 l 6.59804,-9.541517 h -6.49055 v -1.306378 h 8.39224 v 1.165818 z" />
    </g>
    <g
       style="font-size:16.9333px;line-height:1.25;font-family:Discovery;-inkscape-font-specification:Discovery;letter-spacing:0px;word-spacing:0px;display:inline;stroke-width:0.264583"
       id="text925"
       aria-label="I">
      <path
         id="path303"
         style="stroke-width:0.264583"
         d="m 212.88964,75.50708 h -1.58749 V 63.468562 h 1.58749 z" />
    </g>
    <g
       style="font-size:16.9333px;line-height:1.25;font-family:Discovery;-inkscape-font-specification:Discovery;letter-spacing:0px;word-spacing:0px;display:inline;stroke-width:0.264583"
       id="text929"
       aria-label="G">
      <path
         id="path306"
         style="stroke-width:0.264583"
         d="m 234.76454,73.762484 q -0.61185,0.876431 -1.71152,1.314646 -1.09141,0.429947 -2.54661,0.429947 -1.47174,0 -2.61276,-0.686261 -1.14101,-0.69453 -1.76939,-1.967835 -0.62012,-1.273305 -0.63666,-2.951752 v -1.050063 q 0,-2.720242 1.26504,-4.216789 1.27331,-1.496546 3.57187,-1.496546 1.88515,0 3.03443,0.967381 1.14928,0.959112 1.4056,2.72851 h -1.5875 q -0.44648,-2.389514 -2.84426,-2.389514 -1.59577,0 -2.42259,1.124477 -0.81855,1.116209 -0.82682,3.24114 v 0.983917 q 0,2.025712 0.92604,3.224603 0.92604,1.190623 2.50527,1.190623 0.89296,0 1.56269,-0.198437 0.66972,-0.198437 1.10794,-0.669726 V 70.6371 h -2.78639 v -1.289841 h 4.36562 z" />
    </g>
    <g
       style="font-size:16.9333px;line-height:1.25;font-family:Discovery;-inkscape-font-specification:Discovery;letter-spacing:0px;word-spacing:0px;stroke-width:0.264583"
       id="text979"
       aria-label="D">
      <path
         id="path309"
         style="stroke-width:0.264583"
         d="m 45.470833,92.592592 v -8.557601 h 3.398236 q 1.57096,0 2.778119,0.69453 1.20716,0.69453 1.868617,1.976103 0.661457,1.298109 0.661457,2.943484 v 0.768944 q 0,1.703251 -0.661457,2.984824 -0.653189,1.281573 -1.868617,1.967835 -1.256768,0.702798 -2.844265,0.702798 h -3.33209 V 94.7754 h 1.587497 1.670179 q 1.835544,0 2.852534,-1.141014 1.025258,-1.141013 1.025258,-3.249407 v -0.702798 q 0,-2.050517 -0.959113,-3.183262 -0.983917,-1.15755 -2.736778,-1.15755 h -1.85208 v 7.251223 z" />
    </g>
    <g
       style="font-size:16.9333px;line-height:1.25;font-family:Discovery;-inkscape-font-specification:Discovery;letter-spacing:0px;word-spacing:0px;stroke-width:0.264583"
       id="text983"
       aria-label="T">
      <path
         id="path312"
         style="stroke-width:0.264583"
         d="m 54.479055,105.9078 h -3.869524 v 10.73214 H 49.030302 V 105.9078 h -3.861255 v -1.30638 h 9.310008 z" />
    </g>
    <g
       style="font-size:16.9333px;line-height:1.25;font-family:Discovery;-inkscape-font-specification:Discovery;letter-spacing:0px;word-spacing:0px;stroke-width:0.264583"
       id="text987"
       aria-label="H">
      <path
         id="path315"
         style="stroke-width:0.264583"
         d="m 54.450114,137.20636 h -1.595766 v -5.56451 H 46.78548 v 5.56451 h -1.587497 v -12.03852 h 1.587497 v 5.1759 h 6.068868 v -5.1759 h 1.595766 z" />
    </g>
    <g
       style="font-size:16.9333px;line-height:1.25;font-family:Discovery;-inkscape-font-specification:Discovery;letter-spacing:0px;word-spacing:0px;stroke-width:0.264583"
       id="text991"
       aria-label="Z">
      <path
         id="path318"
         style="stroke-width:0.264583"
         d="m 47.318782,156.47469 h 6.887421 v 1.29811 h -8.764306 v -1.19063 l 6.598034,-9.54151 h -6.490547 v -1.30638 h 8.392236 v 1.16582 z" />
    </g>
    <g
       style="font-size:16.9333px;line-height:1.25;font-family:Discovery;-inkscape-font-specification:Discovery;letter-spacing:0px;word-spacing:0px;stroke-width:0.264583"
       id="text995"
       aria-label="K">
      <path
         id="path321"
         style="stroke-width:0.264583"
         d="m 48.269624,172.74164 -1.471742,1.52962 v 4.06796 H 45.210385 V 166.3007 h 1.587497 v 5.95311 l 5.349534,-5.95311 h 1.918225 l -4.737686,5.31646 5.109756,6.72206 h -1.901689 z" />
    </g>
    <g
       style="font-size:16.9333px;line-height:1.25;font-family:Discovery;-inkscape-font-specification:Discovery;letter-spacing:0px;word-spacing:0px;stroke-width:0.264583"
       id="text999"
       aria-label="E">
      <path
         id="path324"
         style="stroke-width:0.264583"
         d="m 52.80474,193.17577 h -5.217243 v 4.2664 h 6.0606 v 1.29811 h -7.648096 v -12.03852 h 7.565414 v 1.30638 h -5.977918 v 3.86952 h 5.217243 z" />
    </g>
    <g
       style="font-size:16.9333px;line-height:1.25;font-family:Discovery;-inkscape-font-specification:Discovery;letter-spacing:0px;word-spacing:0px;stroke-width:0.264583"
       id="text1003"
       aria-label="W">
      <path
         id="path327"
         style="stroke-width:0.264583"
         d="m 46.235643,215.51161 0.23151,1.58749 0.338996,-1.4304 2.381246,-8.4005 h 1.33945 l 2.323368,8.4005 0.330729,1.45521 0.256314,-1.62057 1.868616,-8.23514 h 1.595765 l -2.918679,12.03852 h -1.446937 l -2.480464,-8.77258 -0.190169,-0.91777 -0.190169,0.91777 -2.571414,8.77258 H 45.656868 L 42.746457,207.2682 h 1.587497 z" />
    </g>
    <g
       style="font-size:16.9333px;line-height:1.25;font-family:Discovery;-inkscape-font-specification:Discovery;letter-spacing:0px;word-spacing:0px;stroke-width:0.264583"
       id="text1007"
       aria-label="B">
      <path
         id="path330"
         style="stroke-width:0.264583"
         d="M 49.274214,228.30637 V 227 h 0.388606 q 1.959566,0 2.943484,0.81028 0.992185,0.81028 0.992185,2.39778 0,0.84336 -0.479556,1.49655 -0.479556,0.64492 -1.306378,1.00045 0.975649,0.27285 1.537888,1.0418 0.570507,0.76067 0.570507,1.819 0,1.62057 -1.050064,2.54661 -1.050063,0.92604 -2.968288,0.92604 H 45.727151 V 227 h 1.587496 v 10.7404 h 2.621024 q 1.10794,0 1.744593,-0.5705 0.64492,-0.57878 0.64492,-1.5875 0,-2.14147 -2.364708,-2.17454 l -0.669726,-0.008 v -1.2733 l 0.421679,0.008 q 1.01699,0.0165 1.661911,-0.5209 0.628384,-0.5209 0.628384,-1.41387 0,-0.99218 -0.578775,-1.44693 -0.587043,-0.44649 -1.761129,-0.44649 z M 47.314647,227 Z" />
    </g>
    <g
       style="font-size:16.9333px;line-height:1.25;font-family:Discovery;-inkscape-font-specification:Discovery;letter-spacing:0px;word-spacing:0px;stroke-width:0.264583"
       id="text79"
       aria-label="R">
      <path
         id="path333"
         style="stroke-width:0.264583"
         d="m 65.080272,85.341369 h -1.595765 v -1.306378 h 3.985279 q 2.03398,0 3.125384,0.92604 1.099673,0.92604 1.099673,2.695437 0,1.124477 -0.611848,1.959567 -0.60358,0.835089 -1.686715,1.2485 l 2.827728,5.109756 v 0.09922 h -1.703252 l -2.612755,-4.869977 h -2.827729 v 4.869977 h -1.595765 v -6.168087 h 1.595765 2.439123 q 1.182355,0 1.876885,-0.611847 0.702798,-0.611848 0.702798,-1.637107 0,-1.116208 -0.661457,-1.71152 -0.677994,-0.603579 -1.926494,-0.603579 z" />
    </g>
    <g
       style="font-size:16.9333px;line-height:1.25;font-family:Discovery;-inkscape-font-specification:Discovery;letter-spacing:0px;word-spacing:0px;stroke-width:0.264583"
       id="text83"
       aria-label="E">
      <path
         id="path336"
         style="stroke-width:0.264583"
         d="M 88.865138,90.509002 H 83.647896 V 94.7754 h 6.0606 v 1.298109 H 82.060399 V 84.034991 h 7.565414 v 1.306378 h -5.977917 v 3.869524 h 5.217242 z" />
    </g>
    <g
       style="font-size:16.9333px;line-height:1.25;font-family:Discovery;-inkscape-font-specification:Discovery;letter-spacing:0px;word-spacing:0px;stroke-width:0.264583"
       id="text87"
       aria-label="I">
      <path
         id="path339"
         style="stroke-width:0.264583"
         d="m 104.7084,96.073509 h -1.5875 V 84.034991 h 1.5875 z" />
    </g>
    <g
       style="font-size:16.9333px;line-height:1.25;font-family:Discovery;-inkscape-font-specification:Discovery;letter-spacing:0px;word-spacing:0px;stroke-width:0.264583"
       id="text91"
       aria-label="V">
      <path
         id="path342"
         style="stroke-width:0.264583"
         d="m 121.93246,93.965115 3.43958,-9.930124 h 1.73633 l -4.46484,12.038518 h -1.4056 l -4.45656,-12.038518 h 1.72805 z" />
    </g>
    <g
       style="font-size:16.9333px;line-height:1.25;font-family:Discovery;-inkscape-font-specification:Discovery;letter-spacing:0px;word-spacing:0px;stroke-width:0.264583"
       id="text95"
       aria-label="I">
      <path
         id="path345"
         style="stroke-width:0.264583"
         d="M 140.76879,96.073509 H 139.1813 V 84.034991 h 1.58749 z" />
    </g>
    <g
       style="font-size:16.9333px;line-height:1.25;font-family:Discovery;-inkscape-font-specification:Discovery;letter-spacing:0px;word-spacing:0px;stroke-width:0.264583"
       id="text99"
       aria-label="E">
      <path
         id="path348"
         style="stroke-width:0.264583"
         d="m 160.98596,90.509002 h -5.21725 V 94.7754 h 6.0606 v 1.298109 h -7.64809 V 84.034991 h 7.56541 v 1.306378 h -5.97792 v 3.869524 h 5.21725 z" />
    </g>
    <g
       style="font-size:16.9333px;line-height:1.25;font-family:Discovery;-inkscape-font-specification:Discovery;letter-spacing:0px;word-spacing:0px;stroke-width:0.264583"
       id="text103"
       aria-label="R">
      <path
         id="path351"
         style="stroke-width:0.264583"
         d="m 173.2615,85.341369 h -1.59577 v -1.306378 h 3.98528 q 2.03398,0 3.12539,0.92604 1.09967,0.92604 1.09967,2.695437 0,1.124477 -0.61185,1.959567 -0.60358,0.835089 -1.68672,1.2485 l 2.82773,5.109756 v 0.09922 h -1.70325 l -2.61275,-4.869977 h -2.82773 v 4.869977 h -1.59577 v -6.168087 h 1.59577 2.43912 q 1.18235,0 1.87688,-0.611847 0.7028,-0.611848 0.7028,-1.637107 0,-1.116208 -0.66145,-1.71152 -0.678,-0.603579 -1.9265,-0.603579 z" />
    </g>
    <g
       style="font-size:16.9333px;line-height:1.25;font-family:Discovery;-inkscape-font-specification:Discovery;letter-spacing:0px;word-spacing:0px;stroke-width:0.264583"
       id="text107"
       aria-label="T">
      <path
         id="path354"
         style="stroke-width:0.264583"
         d="m 198.72069,85.341369 h -3.86952 v 10.73214 h -1.57923 v -10.73214 h -3.86126 v -1.306378 h 9.31001 z" />
    </g>
    <g
       style="font-size:16.9333px;line-height:1.25;font-family:Discovery;-inkscape-font-specification:Discovery;letter-spacing:0px;word-spacing:0px;stroke-width:0.264583"
       id="text111"
       aria-label="E">
      <path
         id="path357"
         style="stroke-width:0.264583"
         d="m 215.07658,90.509002 h -5.21724 V 94.7754 h 6.0606 v 1.298109 h -7.6481 V 84.034991 h 7.56541 v 1.306378 h -5.97791 v 3.869524 h 5.21724 z" />
    </g>
    <g
       style="font-size:16.9333px;line-height:1.25;font-family:Discovery;-inkscape-font-specification:Discovery;letter-spacing:0px;word-spacing:0px;stroke-width:0.264583"
       id="text115"
       aria-label="L">
      <path
         id="path360"
         style="stroke-width:0.264583"
         d="m 228.07142,94.7754 h 5.70506 v 1.298109 h -7.30083 V 84.034991 h 1.59577 z" />
    </g>
    <g
       style="font-size:16.9333px;line-height:1.25;font-family:Discovery;-inkscape-font-specification:Discovery;letter-spacing:0px;word-spacing:0px;stroke-width:0.264583"
       id="text119"
       aria-label="G">
      <path
         id="path363"
         style="stroke-width:0.264583"
         d="m 72.492726,114.89534 q -0.611848,0.87643 -1.71152,1.31465 -1.091404,0.42995 -2.546609,0.42995 -1.471742,0 -2.612756,-0.68627 -1.141013,-0.69453 -1.769397,-1.96783 -0.620116,-1.27331 -0.636653,-2.95175 v -1.05007 q 0,-2.72024 1.265037,-4.21678 1.273305,-1.49655 3.571868,-1.49655 1.885152,0 3.034434,0.96738 1.149282,0.95911 1.405596,2.72851 h -1.587497 q -0.446483,-2.38951 -2.844265,-2.38951 -1.595765,0 -2.422586,1.12447 -0.818553,1.11621 -0.826822,3.24114 v 0.98392 q 0,2.02571 0.92604,3.2246 0.92604,1.19063 2.505269,1.19063 0.892967,0 1.562692,-0.19844 0.669725,-0.19844 1.107941,-0.66973 v -2.7037 H 68.12711 v -1.28984 h 4.365616 z" />
    </g>
    <g
       style="font-size:16.9333px;line-height:1.25;font-family:Discovery;-inkscape-font-specification:Discovery;letter-spacing:0px;word-spacing:0px;stroke-width:0.264583"
       id="text123"
       aria-label="N">
      <path
         id="path366"
         style="stroke-width:0.264583"
         d="m 90.510512,116.63994 h -1.595765 l -6.0606,-9.27694 v 9.27694 h -1.595766 v -12.03852 h 1.595766 l 6.077136,9.31828 v -9.31828 h 1.579229 z" />
    </g>
    <g
       style="font-size:16.9333px;line-height:1.25;font-family:Discovery;-inkscape-font-specification:Discovery;letter-spacing:0px;word-spacing:0px;stroke-width:0.264583"
       id="text127"
       aria-label="A">
      <path
         id="path369"
         style="stroke-width:0.264583"
         d="m 103.38962,113.49802 h 3.0427 l 1.14928,3.14192 h 1.62884 l -4.60539,-12.03852 h -1.38906 l -4.597128,12.03852 h 1.637108 l 1.13274,-3.14192 2.52181,-6.93703 2.05052,5.63065 h -2.09186 z" />
    </g>
    <g
       style="font-size:16.9333px;line-height:1.25;font-family:Discovery;-inkscape-font-specification:Discovery;letter-spacing:0px;word-spacing:0px;stroke-width:0.264583"
       id="text131"
       aria-label="C">
      <path
         id="path372"
         style="stroke-width:0.264583"
         d="m 126.57919,112.65466 q -0.22324,1.90995 -1.41386,2.95175 -1.18236,1.03353 -3.15019,1.03353 -2.1332,0 -3.42304,-1.52962 -1.28158,-1.52962 -1.28158,-4.09277 V 109.86 q 0,-1.67845 0.59532,-2.95175 0.60357,-1.27331 1.70325,-1.9513 1.09967,-0.68626 2.54661,-0.68626 1.91822,0 3.07577,1.07487 1.15755,1.0666 1.34772,2.96002 h -1.59576 q -0.20671,-1.43867 -0.90124,-2.08359 -0.68626,-0.64492 -1.92649,-0.64492 -1.52135,0 -2.38952,1.12447 -0.85989,1.12448 -0.85989,3.1998 v 1.16582 q 0,1.95957 0.81855,3.11712 0.81856,1.15755 2.2903,1.15755 1.32291,0 2.02571,-0.59532 0.71107,-0.60357 0.94258,-2.09185 z" />
    </g>
    <g
       style="font-size:16.9333px;line-height:1.25;font-family:Discovery;-inkscape-font-specification:Discovery;letter-spacing:0px;word-spacing:0px;stroke-width:0.264583"
       id="text135"
       aria-label="H">
      <path
         id="path375"
         style="stroke-width:0.264583"
         d="m 144.60112,116.63994 h -1.59577 v -5.56451 h -6.06886 v 5.56451 h -1.5875 v -12.03852 h 1.5875 v 5.1759 h 6.06886 v -5.1759 h 1.59577 z" />
    </g>
    <g
       style="font-size:16.9333px;line-height:1.25;font-family:Discovery;-inkscape-font-specification:Discovery;letter-spacing:0px;word-spacing:0px;stroke-width:0.264583"
       id="text139"
       aria-label="V">
      <path
         id="path378"
         style="stroke-width:0.264583"
         d="m 157.99287,114.53154 3.43957,-9.93012 h 1.73633 l -4.46484,12.03852 h -1.40559 l -4.45657,-12.03852 h 1.72806 z" />
    </g>
    <g
       style="font-size:16.9333px;line-height:1.25;font-family:Discovery;-inkscape-font-specification:Discovery;letter-spacing:0px;word-spacing:0px;stroke-width:0.264583"
       id="text143"
       aria-label="O">
      <path
         id="path381"
         style="stroke-width:0.264583"
         d="m 177.97438,104.65103 q -0.87643,-0.38034 -1.94303,-0.38034 -1.42213,0 -2.53007,0.71107 -1.09968,0.70279 -1.70326,2.03398 -0.60358,1.33118 -0.60358,3.0675 v 0.86817 q 0,1.67017 0.62839,2.99309 0.1819,0.38034 0.39687,0.71106 l 0.90124,-1.55442 q -0.34727,-0.95084 -0.34727,-2.25722 v -0.8847 q 0,-2.00091 0.8847,-3.17499 0.86816,-1.14929 2.37298,-1.14929 0.68626,0 1.2485,0.23151 z m -5.75468,10.00453 z m 1.52962,1.42214 q 1.01699,0.56224 2.29857,0.56224 1.4552,0 2.54661,-0.69453 1.0914,-0.69453 1.68671,-2.00918 0.59531,-1.32291 0.59531,-3.09231 v -0.76068 q 0,-1.76113 -0.59531,-3.08404 -0.28112,-0.62838 -0.66972,-1.11621 0,0 -0.83509,1.45521 0.52089,1.0666 0.52089,2.72851 v 0.89296 q 0,2.05879 -0.86816,3.21634 -0.84336,1.11621 -2.38124,1.11621 -0.91778,0 -1.59577,-0.42995 z" />
    </g>
    <g
       style="font-size:16.9333px;line-height:1.25;font-family:Discovery;-inkscape-font-specification:Discovery;letter-spacing:0px;word-spacing:0px;stroke-width:0.264583"
       id="text147"
       aria-label="R">
      <path
         id="path384"
         style="stroke-width:0.264583"
         d="m 191.29169,105.9078 h -1.59576 v -1.30638 h 3.98528 q 2.03398,0 3.12538,0.92604 1.09967,0.92604 1.09967,2.69544 0,1.12447 -0.61184,1.95956 -0.60358,0.83509 -1.68672,1.2485 l 2.82773,5.10976 v 0.0992 h -1.70325 l -2.61276,-4.86998 h -2.82773 v 4.86998 h -1.59576 v -6.16809 h 1.59576 2.43913 q 1.18235,0 1.87688,-0.61185 0.7028,-0.61184 0.7028,-1.6371 0,-1.11621 -0.66146,-1.71152 -0.67799,-0.60358 -1.92649,-0.60358 z" />
    </g>
    <g
       style="font-size:16.9333px;line-height:1.25;font-family:Discovery;-inkscape-font-specification:Discovery;letter-spacing:0px;word-spacing:0px;stroke-width:0.264583"
       id="text151"
       aria-label="J">
      <path
         id="path387"
         style="stroke-width:0.264583"
         d="m 214.29937,104.43605 h 1.59576 v 8.52453 q 0,1.72806 -1.04179,2.70371 -1.03353,0.97565 -2.76159,0.97565 -1.7942,0 -2.79465,-0.91778 -1.00046,-0.91777 -1.00046,-2.57141 h 1.5875 q 0,1.03353 0.56224,1.6123 0.57051,0.57878 1.64537,0.57878 0.98392,0 1.5875,-0.62012 0.61185,-0.62012 0.62012,-1.73632 z" />
    </g>
    <g
       style="font-size:16.9333px;line-height:1.25;font-family:Discovery;-inkscape-font-specification:Discovery;letter-spacing:0px;word-spacing:0px;stroke-width:0.264583"
       id="text155"
       aria-label="M">
      <path
         id="path390"
         style="stroke-width:0.264583"
         d="m 226.18626,104.60142 3.93567,9.82264 3.93567,-9.82264 h 2.05879 v 12.03852 h -1.5875 v -4.68808 l 0.14883,-5.06014 -3.95221,9.74822 h -1.21543 l -3.94393,-9.72342 0.15709,5.03534 v 4.68808 h -1.58749 v -12.03852 z" />
    </g>
    <g
       style="font-size:16.9333px;line-height:1.25;font-family:Discovery;-inkscape-font-specification:Discovery;letter-spacing:0px;word-spacing:0px;stroke-width:0.264583"
       id="text159"
       aria-label="A">
      <path
         id="path393"
         style="stroke-width:0.264583"
         d="m 67.329227,134.06444 h 3.042702 l 1.149281,3.14192 h 1.628838 l -4.605394,-12.03852 h -1.38906 l -4.597126,12.03852 h 1.637106 l 1.132745,-3.14192 2.521805,-6.93703 2.050517,5.63065 h -2.091858 z" />
    </g>
    <g
       style="font-size:16.9333px;line-height:1.25;font-family:Discovery;-inkscape-font-specification:Discovery;letter-spacing:0px;word-spacing:0px;stroke-width:0.264583"
       id="text163"
       aria-label="L">
      <path
         id="path396"
         style="stroke-width:0.264583"
         d="m 83.829801,135.90825 h 5.705067 v 1.29811 h -7.300832 v -12.03852 h 1.595765 z" />
    </g>
    <g
       style="font-size:16.9333px;line-height:1.25;font-family:Discovery;-inkscape-font-specification:Discovery;letter-spacing:0px;word-spacing:0px;stroke-width:0.264583"
       id="text167"
       aria-label="B">
      <path
         id="path399"
         style="stroke-width:0.264583"
         d="m 103.36482,126.47422 v -1.30638 h 0.3886 q 1.95957,0 2.94349,0.81029 0.99218,0.81028 0.99218,2.39778 0,0.84336 -0.47955,1.49655 -0.47956,0.64492 -1.30638,1.00045 0.97565,0.27285 1.53789,1.04179 0.5705,0.76068 0.5705,1.81901 0,1.62057 -1.05006,2.54661 -1.05006,0.92604 -2.96829,0.92604 h -4.175447 v -12.03852 h 1.587497 v 10.74041 h 2.62102 q 1.10794,0 1.7446,-0.57051 0.64492,-0.57877 0.64492,-1.58749 0,-2.14147 -2.36471,-2.17454 l -0.66973,-0.008 v -1.27331 l 0.42168,0.008 q 1.01699,0.0165 1.66191,-0.5209 0.62839,-0.52089 0.62839,-1.41386 0,-0.99219 -0.57878,-1.44694 -0.58704,-0.44648 -1.76113,-0.44648 z m -1.95957,-1.30638 z" />
    </g>
    <g
       style="font-size:16.9333px;line-height:1.25;font-family:Discovery;-inkscape-font-specification:Discovery;letter-spacing:0px;word-spacing:0px;stroke-width:0.264583"
       id="text171"
       aria-label="A">
      <path
         id="path402"
         style="stroke-width:0.264583"
         d="m 121.41983,134.06444 h 3.0427 l 1.14928,3.14192 h 1.62884 l -4.6054,-12.03852 h -1.38906 l -4.59712,12.03852 h 1.6371 l 1.13275,-3.14192 2.5218,-6.93703 2.05052,5.63065 h -2.09186 z" />
    </g>
    <g
       style="font-size:16.9333px;line-height:1.25;font-family:Discovery;-inkscape-font-specification:Discovery;letter-spacing:0px;word-spacing:0px;stroke-width:0.264583"
       id="text175"
       aria-label="Z">
      <path
         id="path405"
         style="stroke-width:0.264583"
         d="m 137.46979,135.90825 h 6.88742 v 1.29811 h -8.76431 v -1.19062 l 6.59804,-9.54152 h -6.49055 v -1.30638 h 8.39224 v 1.16582 z" />
    </g>
    <g
       style="font-size:16.9333px;line-height:1.25;font-family:Discovery;-inkscape-font-specification:Discovery;letter-spacing:0px;word-spacing:0px;stroke-width:0.264583"
       id="text179"
       aria-label="W">
      <path
         id="path408"
         style="stroke-width:0.264583"
         d="m 154.41686,133.41125 0.23151,1.5875 0.33899,-1.4304 2.38125,-8.40051 h 1.33945 l 2.32337,8.40051 0.33072,1.4552 0.25632,-1.62057 1.86862,-8.23514 h 1.59576 l -2.91868,12.03852 h -1.44694 l -2.48046,-8.77257 -0.19017,-0.91778 -0.19017,0.91778 -2.57141,8.77257 h -1.44694 l -2.91041,-12.03852 h 1.5875 z" />
    </g>
    <g
       style="font-size:16.9333px;line-height:1.25;font-family:Discovery;-inkscape-font-specification:Discovery;letter-spacing:0px;word-spacing:0px;stroke-width:0.264583"
       id="text183"
       aria-label="Ö">
      <path
         id="path411"
         style="stroke-width:0.264583"
         d="m 177.97438,125.23399 q -0.87643,-0.38034 -1.94303,-0.38034 -1.42213,0 -2.53007,0.71107 -1.09968,0.7028 -1.70326,2.03398 -0.60358,1.33118 -0.60358,3.06751 v 0.86816 q 0,1.67018 0.62839,2.99309 0.1819,0.38034 0.39687,0.71107 l 0.90124,-1.55442 q -0.34727,-0.95085 -0.34727,-2.25723 v -0.88469 q 0,-2.00091 0.8847,-3.175 0.86816,-1.14928 2.37298,-1.14928 0.68626,0 1.2485,0.23151 z m -5.75468,10.00454 z m 1.52962,1.42213 q 1.01699,0.56224 2.29857,0.56224 1.4552,0 2.54661,-0.69453 1.0914,-0.69453 1.68671,-2.00917 0.59531,-1.32292 0.59531,-3.09232 v -0.76067 q 0,-1.76113 -0.59531,-3.08405 -0.28112,-0.62838 -0.66972,-1.1162 0,0 -0.83509,1.4552 0.52089,1.0666 0.52089,2.72851 v 0.89297 q 0,2.05878 -0.86816,3.21633 -0.84336,1.11621 -2.38124,1.11621 -0.91778,0 -1.59577,-0.42994 z m -0.35553,-13.53506 q 0,-0.37207 0.22324,-0.62012 0.23151,-0.25631 0.67799,-0.25631 0.44649,0 0.678,0.25631 0.23151,0.24805 0.23151,0.62012 0,0.37207 -0.23151,0.62011 -0.23151,0.24805 -0.678,0.24805 -0.44648,0 -0.67799,-0.24805 -0.22324,-0.24804 -0.22324,-0.62011 z m 3.55533,0.0165 q 0,-0.37207 0.22324,-0.62838 0.23151,-0.25631 0.678,-0.25631 0.44648,0 0.67799,0.25631 0.23151,0.25631 0.23151,0.62838 0,0.37207 -0.23151,0.62012 -0.23151,0.24805 -0.67799,0.24805 -0.44649,0 -0.678,-0.24805 -0.22324,-0.24805 -0.22324,-0.62012 z" />
    </g>
    <g
       style="font-size:16.9333px;line-height:1.25;font-family:Discovery;-inkscape-font-specification:Discovery;letter-spacing:0px;word-spacing:0px;stroke-width:0.264583"
       id="text187"
       aria-label="L">
      <path
         id="path414"
         style="stroke-width:0.264583"
         d="m 192.01102,135.90825 h 5.70507 v 1.29811 h -7.30083 v -12.03852 h 1.59576 z" />
    </g>
    <g
       style="font-size:16.9333px;line-height:1.25;font-family:Discovery;-inkscape-font-specification:Discovery;letter-spacing:0px;word-spacing:0px;stroke-width:0.264583"
       id="text191"
       aria-label="F">
      <path
         id="path417"
         style="stroke-width:0.264583"
         d="m 215.00629,131.8899 h -5.05188 v 5.31646 h -1.58749 v -12.03852 h 7.45793 v 1.30638 h -5.87044 v 4.11757 h 5.05188 z" />
    </g>
    <g
       style="font-size:16.9333px;line-height:1.25;font-family:Discovery;-inkscape-font-specification:Discovery;letter-spacing:0px;word-spacing:0px;stroke-width:0.264583"
       id="text195"
       aria-label="P">
      <path
         id="path420"
         style="stroke-width:0.264583"
         d="m 229.36126,132.49348 h 0.85989 q 2.04225,0 3.13365,-0.94258 1.09968,-0.95084 1.09968,-2.7037 0,-1.66191 -1.12448,-2.67064 -1.11621,-1.00872 -3.09231,-1.00872 h -4.44003 v 12.03852 h 1.58749 v -4.71288 -1.29811 -4.72115 h 2.94349 q 1.15755,0 1.86035,0.66972 0.67799,0.64493 0.67799,1.71979 0,1.11621 -0.67799,1.72806 -0.66973,0.60358 -1.9513,0.60358 h -0.87643 z" />
    </g>
    <g
       style="font-size:16.9333px;line-height:1.25;font-family:Discovery;-inkscape-font-specification:Discovery;letter-spacing:0px;word-spacing:0px;stroke-width:0.264583"
       id="text207"
       aria-label="W">
      <path
         id="path423"
         style="stroke-width:0.264583"
         d="m 64.265855,153.97769 0.23151,1.58749 0.338997,-1.4304 2.381245,-8.4005 h 1.339451 l 2.323367,8.4005 0.330729,1.45521 0.256315,-1.62057 1.868616,-8.23514 h 1.595765 l -2.918679,12.03852 h -1.446938 l -2.480463,-8.77258 -0.190169,-0.91777 -0.190169,0.91777 -2.571414,8.77258 H 63.68708 l -2.910411,-12.03852 h 1.587497 z" />
    </g>
    <g
       style="font-size:16.9333px;line-height:1.25;font-family:Discovery;-inkscape-font-specification:Discovery;letter-spacing:0px;word-spacing:0px;stroke-width:0.264583"
       id="text211"
       aria-label="E">
      <path
         id="path426"
         style="stroke-width:0.264583"
         d="m 88.865138,152.20829 h -5.217242 v 4.2664 h 6.0606 v 1.29811 h -7.648097 v -12.03852 h 7.565414 v 1.30638 h -5.977917 v 3.86952 h 5.217242 z" />
    </g>
    <g
       style="font-size:16.9333px;line-height:1.25;font-family:Discovery;-inkscape-font-specification:Discovery;letter-spacing:0px;word-spacing:0px;stroke-width:0.264583"
       id="text215"
       aria-label="I">
      <path
         id="path429"
         style="stroke-width:0.264583"
         d="m 104.7084,157.7728 h -1.5875 v -12.03852 h 1.5875 z" />
    </g>
    <g
       style="font-size:16.9333px;line-height:1.25;font-family:Discovery;-inkscape-font-specification:Discovery;letter-spacing:0px;word-spacing:0px;stroke-width:0.264583"
       id="text219"
       aria-label="N">
      <path
         id="path432"
         style="stroke-width:0.264583"
         d="m 126.57092,157.7728 h -1.59576 l -6.0606,-9.27694 v 9.27694 h -1.59577 v -12.03852 h 1.59577 l 6.07713,9.31827 v -9.31827 h 1.57923 z" />
    </g>
    <g
       style="font-size:16.9333px;line-height:1.25;font-family:Discovery;-inkscape-font-specification:Discovery;letter-spacing:0px;word-spacing:0px;stroke-width:0.264583"
       id="text223"
       aria-label="S">
      <path
         id="path435"
         style="stroke-width:0.264583"
         d="m 139.8841,152.24137 q -2.04224,-0.58705 -2.97655,-1.43867 -0.92604,-0.8599 -0.92604,-2.11666 0,-1.42214 1.13274,-2.34818 1.14102,-0.93431 2.96002,-0.93431 1.24023,0 2.20762,0.47956 0.97564,0.47956 1.50481,1.32292 0.53743,0.84335 0.53743,1.84381 h -1.59576 q 0,-1.09141 -0.69453,-1.71152 -0.69453,-0.62839 -1.95957,-0.62839 -1.17408,0 -1.83554,0.5209 -0.65319,0.51263 -0.65319,1.4304 0,0.73587 0.62012,1.2485 0.62838,0.50436 2.12493,0.92604 1.50481,0.42168 2.34817,0.93431 0.85163,0.50436 1.25677,1.18235 0.41341,0.678 0.41341,1.59577 0,1.46347 -1.14101,2.34817 -1.14102,0.87643 -3.05098,0.87643 -1.24023,0 -2.31509,-0.47129 -1.07487,-0.47955 -1.66192,-1.30637 -0.57877,-0.82683 -0.57877,-1.87689 h 1.59576 q 0,1.09141 0.80202,1.72806 0.81029,0.62838 2.158,0.62838 1.25677,0 1.9265,-0.51263 0.66972,-0.51263 0.66972,-1.39733 0,-0.88469 -0.62011,-1.36425 -0.62012,-0.48782 -2.24896,-0.95911 z" />
    </g>
    <g
       style="font-size:16.9333px;line-height:1.25;font-family:Discovery;-inkscape-font-specification:Discovery;letter-spacing:0px;word-spacing:0px;stroke-width:0.264583"
       id="text227"
       aria-label="I">
      <path
         id="path438"
         style="stroke-width:0.264583"
         d="m 158.79901,157.7728 h -1.5875 v -12.03852 h 1.5875 z" />
    </g>
    <g
       style="font-size:16.9333px;line-height:1.25;font-family:Discovery;-inkscape-font-specification:Discovery;letter-spacing:0px;word-spacing:0px;stroke-width:0.264583"
       id="text231"
       aria-label="E">
      <path
         id="path441"
         style="stroke-width:0.264583"
         d="m 179.01618,152.20829 h -5.21724 v 4.2664 h 6.0606 v 1.29811 h -7.64809 v -12.03852 h 7.56541 v 1.30638 h -5.97792 v 3.86952 h 5.21724 z" />
    </g>
    <g
       style="font-size:16.9333px;line-height:1.25;font-family:Discovery;-inkscape-font-specification:Discovery;letter-spacing:0px;word-spacing:0px;stroke-width:0.264583"
       id="text235"
       aria-label="B">
      <path
         id="path444"
         style="stroke-width:0.264583"
         d="m 193.51585,147.04066 v -1.30638 h 0.3886 q 1.95957,0 2.94349,0.81028 0.99218,0.81029 0.99218,2.39779 0,0.84335 -0.47955,1.49654 -0.47956,0.64492 -1.30638,1.00046 0.97565,0.27285 1.53789,1.04179 0.5705,0.76068 0.5705,1.81901 0,1.62057 -1.05006,2.54661 -1.05006,0.92604 -2.96829,0.92604 h -4.17545 v -12.03852 h 1.5875 v 10.74041 h 2.62103 q 1.10794,0 1.74459,-0.57051 0.64492,-0.57877 0.64492,-1.5875 0,-2.14146 -2.36471,-2.17454 l -0.66973,-0.008 v -1.27331 l 0.42168,0.008 q 1.01699,0.0165 1.66191,-0.5209 0.62839,-0.5209 0.62839,-1.41386 0,-0.99219 -0.57878,-1.44694 -0.58704,-0.44648 -1.76113,-0.44648 z m -1.95957,-1.30638 z" />
    </g>
    <g
       style="font-size:16.9333px;line-height:1.25;font-family:Discovery;-inkscape-font-specification:Discovery;letter-spacing:0px;word-spacing:0px;stroke-width:0.264583"
       id="text239"
       aria-label="E">
      <path
         id="path447"
         style="stroke-width:0.264583"
         d="m 215.07658,152.20829 h -5.21724 v 4.2664 h 6.0606 v 1.29811 h -7.6481 v -12.03852 h 7.56541 v 1.30638 h -5.97791 v 3.86952 h 5.21724 z" />
    </g>
    <g
       style="font-size:16.9333px;line-height:1.25;font-family:Discovery;-inkscape-font-specification:Discovery;letter-spacing:0px;word-spacing:0px;stroke-width:0.264583"
       id="text243"
       aria-label="N">
      <path
         id="path450"
         style="stroke-width:0.264583"
         d="m 234.75213,157.7728 h -1.59576 l -6.0606,-9.27694 v 9.27694 H 225.5 v -12.03852 h 1.59577 l 6.07714,9.31827 v -9.31827 h 1.57922 z" />
    </g>
    <g
       style="font-size:16.9333px;line-height:1.25;font-family:Discovery;-inkscape-font-specification:Discovery;letter-spacing:0px;word-spacing:0px;stroke-width:0.264583"
       id="text247"
       aria-label="D">
      <path
         id="path453"
         style="stroke-width:0.264583"
         d="m 63.501046,174.8583 v -8.5576 h 3.398235 q 1.570961,0 2.77812,0.69453 1.207159,0.69453 1.868616,1.9761 0.661457,1.29811 0.661457,2.94349 v 0.76894 q 0,1.70325 -0.661457,2.98483 -0.653189,1.28157 -1.868616,1.96783 -1.256769,0.7028 -2.844265,0.7028 h -3.33209 v -1.29811 h 1.587497 1.670179 q 1.835543,0 2.852533,-1.14101 1.025259,-1.14102 1.025259,-3.24941 v -0.7028 q 0,-2.05052 -0.959113,-3.18326 -0.983918,-1.15755 -2.736779,-1.15755 h -1.852079 v 7.25122 z" />
    </g>
    <g
       style="font-size:16.9333px;line-height:1.25;font-family:Discovery;-inkscape-font-specification:Discovery;letter-spacing:0px;word-spacing:0px;stroke-width:0.264583"
       id="text251"
       aria-label="R">
      <path
         id="path456"
         style="stroke-width:0.264583"
         d="m 83.110466,167.60708 h -1.595765 v -1.30638 h 3.985278 q 2.033981,0 3.125385,0.92604 1.099672,0.92604 1.099672,2.69544 0,1.12447 -0.611848,1.95956 -0.603579,0.83509 -1.686715,1.2485 l 2.827729,5.10976 v 0.0992 H 88.55095 l -2.612755,-4.86998 h -2.827729 v 4.86998 h -1.595765 v -6.16809 h 1.595765 2.439123 q 1.182354,0 1.876884,-0.61185 0.702798,-0.61184 0.702798,-1.6371 0,-1.11621 -0.661457,-1.71152 -0.677994,-0.60358 -1.926494,-0.60358 z" />
    </g>
    <g
       style="font-size:16.9333px;line-height:1.25;font-family:Discovery;-inkscape-font-specification:Discovery;letter-spacing:0px;word-spacing:0px;stroke-width:0.264583"
       id="text255"
       aria-label="E">
      <path
         id="path459"
         style="stroke-width:0.264583"
         d="m 106.89534,172.77471 h -5.21724 v 4.2664 h 6.0606 v 1.29811 h -7.6481 V 166.3007 h 7.56542 v 1.30638 h -5.97792 v 3.86952 h 5.21724 z" />
    </g>
    <g
       style="font-size:16.9333px;line-height:1.25;font-family:Discovery;-inkscape-font-specification:Discovery;letter-spacing:0px;word-spacing:0px;stroke-width:0.264583"
       id="text259"
       aria-label="I">
      <path
         id="path462"
         style="stroke-width:0.264583"
         d="m 122.73861,178.33922 h -1.5875 V 166.3007 h 1.5875 z" />
    </g>
    <g
       style="font-size:16.9333px;line-height:1.25;font-family:Discovery;-inkscape-font-specification:Discovery;letter-spacing:0px;word-spacing:0px;stroke-width:0.264583"
       id="text263"
       aria-label="R">
      <path
         id="path465"
         style="stroke-width:0.264583"
         d="m 137.20106,167.60708 h -1.59577 v -1.30638 h 3.98528 q 2.03398,0 3.12539,0.92604 1.09967,0.92604 1.09967,2.69544 0,1.12447 -0.61185,1.95956 -0.60358,0.83509 -1.68672,1.2485 l 2.82773,5.10976 v 0.0992 h -1.70325 l -2.61275,-4.86998 h -2.82773 v 4.86998 h -1.59577 v -6.16809 h 1.59577 2.43912 q 1.18235,0 1.87688,-0.61185 0.7028,-0.61184 0.7028,-1.6371 0,-1.11621 -0.66145,-1.71152 -0.678,-0.60358 -1.9265,-0.60358 z" />
    </g>
    <g
       style="font-size:16.9333px;line-height:1.25;font-family:Discovery;-inkscape-font-specification:Discovery;letter-spacing:0px;word-spacing:0px;stroke-width:0.264583"
       id="text267"
       aria-label="H">
      <path
         id="path468"
         style="stroke-width:0.264583"
         d="m 162.63133,178.33922 h -1.59576 v -5.56451 h -6.06887 v 5.56451 h -1.5875 V 166.3007 h 1.5875 v 5.1759 h 6.06887 v -5.1759 h 1.59576 z" />
    </g>
    <g
       style="font-size:16.9333px;line-height:1.25;font-family:Discovery;-inkscape-font-specification:Discovery;letter-spacing:0px;word-spacing:0px;stroke-width:0.264583"
       id="text271"
       aria-label="F">
      <path
         id="path471"
         style="stroke-width:0.264583"
         d="m 178.9459,173.02276 h -5.05188 v 5.31646 h -1.5875 V 166.3007 h 7.45793 v 1.30638 h -5.87043 v 4.11757 h 5.05188 z" />
    </g>
    <g
       style="font-size:16.9333px;line-height:1.25;font-family:Discovery;-inkscape-font-specification:Discovery;letter-spacing:0px;word-spacing:0px;stroke-width:0.264583"
       id="text275"
       aria-label="Ü">
      <path
         id="path474"
         style="stroke-width:0.264583"
         d="m 198.42303,166.13534 v 8.18553 q -0.008,1.70325 -1.07487,2.78639 -1.05833,1.08314 -2.87734,1.21543 l -0.42168,0.0165 q -1.9761,0 -3.15019,-1.0666 -1.17408,-1.0666 -1.19062,-2.93521 v -8.20207 h 1.57096 v 8.15246 q 0,1.30638 0.71934,2.03398 0.71933,0.71933 2.05051,0.71933 1.34772,0 2.05879,-0.71933 0.71933,-0.71934 0.71933,-2.02571 v -8.16073 z m -7.01972,-1.86035 q 0,-0.37207 0.22325,-0.62011 0.23151,-0.25632 0.67799,-0.25632 0.44648,0 0.67799,0.25632 0.23151,0.24804 0.23151,0.62011 0,0.37207 -0.23151,0.62012 -0.23151,0.24805 -0.67799,0.24805 -0.44648,0 -0.67799,-0.24805 -0.22325,-0.24805 -0.22325,-0.62012 z m 3.55534,0.0165 q 0,-0.37207 0.22324,-0.62838 0.23151,-0.25632 0.67799,-0.25632 0.44648,0 0.67799,0.25632 0.23151,0.25631 0.23151,0.62838 0,0.37207 -0.23151,0.62012 -0.23151,0.24804 -0.67799,0.24804 -0.44648,0 -0.67799,-0.24804 -0.22324,-0.24805 -0.22324,-0.62012 z" />
    </g>
    <g
       style="font-size:16.9333px;line-height:1.25;font-family:Discovery;-inkscape-font-specification:Discovery;letter-spacing:0px;word-spacing:0px;stroke-width:0.264583"
       id="text279"
       aria-label="N">
      <path
         id="path477"
         style="stroke-width:0.264583"
         d="m 216.72195,178.33922 h -1.59576 l -6.0606,-9.27694 v 9.27694 h -1.59577 V 166.3007 h 1.59577 l 6.07713,9.31828 v -9.31828 h 1.57923 z" />
    </g>
    <g
       style="font-size:16.9333px;line-height:1.25;font-family:Discovery;-inkscape-font-specification:Discovery;letter-spacing:0px;word-spacing:0px;stroke-width:0.264583"
       id="text283"
       aria-label="F">
      <path
         id="path480"
         style="stroke-width:0.264583"
         d="m 233.03647,173.02276 h -5.05187 v 5.31646 h -1.5875 V 166.3007 h 7.45793 v 1.30638 h -5.87043 v 4.11757 h 5.05187 z" />
    </g>
    <g
       style="font-size:16.9333px;line-height:1.25;font-family:Discovery;-inkscape-font-specification:Discovery;letter-spacing:0px;word-spacing:0px;stroke-width:0.264583"
       id="text287"
       aria-label="L">
      <path
         id="path483"
         style="stroke-width:0.264583"
         d="m 65.799608,197.44217 h 5.705067 v 1.29811 h -7.300832 v -12.03852 h 1.595765 z" />
    </g>
    <g
       style="font-size:16.9333px;line-height:1.25;font-family:Discovery;-inkscape-font-specification:Discovery;letter-spacing:0px;word-spacing:0px;stroke-width:0.264583"
       id="text291"
       aria-label="F">
      <path
         id="path486"
         style="stroke-width:0.264583"
         d="m 88.794859,193.42382 h -5.051878 v 5.31646 h -1.587497 v -12.03852 h 7.457928 v 1.30638 h -5.870431 v 4.11757 h 5.051878 z" />
    </g>
    <g
       style="font-size:16.9333px;line-height:1.25;font-family:Discovery;-inkscape-font-specification:Discovery;letter-spacing:0px;word-spacing:0px;stroke-width:0.264583"
       id="text295"
       aria-label="N">
      <path
         id="path489"
         style="stroke-width:0.264583"
         d="m 108.54072,198.74028 h -1.59577 l -6.0606,-9.27693 v 9.27693 h -1.595764 v -12.03852 h 1.595764 l 6.07714,9.31828 v -9.31828 h 1.57923 z" />
    </g>
    <g
       style="font-size:16.9333px;line-height:1.25;font-family:Discovery;-inkscape-font-specification:Discovery;letter-spacing:0px;word-spacing:0px;stroke-width:0.264583"
       id="text299"
       aria-label="E">
      <path
         id="path492"
         style="stroke-width:0.264583"
         d="m 124.92556,193.17577 h -5.21725 v 4.2664 h 6.0606 v 1.29811 h -7.64809 v -12.03852 h 7.56541 v 1.30638 h -5.97792 v 3.86952 h 5.21725 z" />
    </g>
    <g
       style="font-size:16.9333px;line-height:1.25;font-family:Discovery;-inkscape-font-specification:Discovery;letter-spacing:0px;word-spacing:0px;stroke-width:0.264583"
       id="text303"
       aria-label="U">
      <path
         id="path495"
         style="stroke-width:0.264583"
         d="m 144.33239,186.5364 v 8.18553 q -0.008,1.70326 -1.07487,2.78639 -1.05833,1.08314 -2.87734,1.21543 l -0.42167,0.0165 q -1.97611,0 -3.15019,-1.06659 -1.17409,-1.0666 -1.19063,-2.93522 v -8.20207 h 1.57096 v 8.15246 q 0,1.30638 0.71934,2.03398 0.71933,0.71934 2.05052,0.71934 1.34771,0 2.05878,-0.71934 0.71934,-0.71933 0.71934,-2.02571 v -8.16073 z" />
    </g>
    <g
       style="font-size:16.9333px;line-height:1.25;font-family:Discovery;-inkscape-font-specification:Discovery;letter-spacing:0px;word-spacing:0px;stroke-width:0.264583"
       id="text307"
       aria-label="N">
      <path
         id="path498"
         style="stroke-width:0.264583"
         d="m 162.63133,198.74028 h -1.59576 l -6.0606,-9.27693 v 9.27693 h -1.59577 v -12.03852 h 1.59577 l 6.07713,9.31828 v -9.31828 h 1.57923 z" />
    </g>
    <g
       style="font-size:16.9333px;line-height:1.25;font-family:Discovery;-inkscape-font-specification:Discovery;letter-spacing:0px;word-spacing:0px;stroke-width:0.264583"
       id="text311"
       aria-label="V">
      <path
         id="path501"
         style="stroke-width:0.264583"
         d="m 176.02308,196.63189 3.43958,-9.93013 h 1.73632 l -4.46483,12.03852 h -1.4056 l -4.45657,-12.03852 h 1.72806 z" />
    </g>
    <g
       style="font-size:16.9333px;line-height:1.25;font-family:Discovery;-inkscape-font-specification:Discovery;letter-spacing:0px;word-spacing:0px;stroke-width:0.264583"
       id="text315"
       aria-label="I">
      <path
         id="path504"
         style="stroke-width:0.264583"
         d="m 194.85943,198.74028 h -1.5875 v -12.03852 h 1.5875 z" />
    </g>
    <g
       style="font-size:16.9333px;line-height:1.25;font-family:Discovery;-inkscape-font-specification:Discovery;letter-spacing:0px;word-spacing:0px;stroke-width:0.264583"
       id="text319"
       aria-label="E">
      <path
         id="path507"
         style="stroke-width:0.264583"
         d="m 215.07658,193.17577 h -5.21724 v 4.2664 h 6.0606 v 1.29811 h -7.6481 v -12.03852 h 7.56541 v 1.30638 h -5.97791 v 3.86952 h 5.21724 z" />
    </g>
    <g
       style="font-size:16.9333px;line-height:1.25;font-family:Discovery;-inkscape-font-specification:Discovery;letter-spacing:0px;word-spacing:0px;stroke-width:0.264583"
       id="text323"
       aria-label="R">
      <path
         id="path510"
         style="stroke-width:0.264583"
         d="m 227.35209,188.00814 h -1.59577 v -1.30638 h 3.98528 q 2.03398,0 3.12539,0.92604 1.09967,0.92604 1.09967,2.69544 0,1.12448 -0.61185,1.95957 -0.60358,0.83509 -1.68671,1.2485 l 2.82772,5.10975 v 0.0992 h -1.70325 l -2.61275,-4.86998 h -2.82773 v 4.86998 h -1.59577 v -6.16809 h 1.59577 2.43912 q 1.18236,0 1.87689,-0.61184 0.70279,-0.61185 0.70279,-1.63711 0,-1.11621 -0.66145,-1.71152 -0.678,-0.60358 -1.9265,-0.60358 z" />
    </g>
    <g
       style="font-size:16.9333px;line-height:1.25;font-family:Discovery;-inkscape-font-specification:Discovery;letter-spacing:0px;word-spacing:0px;stroke-width:0.264583"
       id="text327"
       aria-label="A">
      <path
         id="path513"
         style="stroke-width:0.264583"
         d="m 67.329227,216.1648 h 3.042702 l 1.149281,3.14192 h 1.628838 L 68.544654,207.2682 h -1.38906 l -4.597126,12.03852 h 1.637106 l 1.132745,-3.14192 2.521805,-6.93703 2.050517,5.63065 h -2.091858 z" />
    </g>
    <g
       style="font-size:16.9333px;line-height:1.25;font-family:Discovery;-inkscape-font-specification:Discovery;letter-spacing:0px;word-spacing:0px;stroke-width:0.264583"
       id="text331"
       aria-label="C">
      <path
         id="path516"
         style="stroke-width:0.264583"
         d="m 90.518781,215.32144 q -0.223242,1.90996 -1.413864,2.95176 -1.182355,1.03352 -3.150189,1.03352 -2.133199,0 -3.42304,-1.52962 -1.281573,-1.52962 -1.281573,-4.09276 v -1.15755 q 0,-1.67845 0.595311,-2.95175 0.603579,-1.27331 1.703252,-1.9513 1.099672,-0.68626 2.546609,-0.68626 1.918226,0 3.075775,1.07486 1.15755,1.0666 1.347719,2.96002 h -1.595765 q -0.206705,-1.43867 -0.901235,-2.08359 -0.686262,-0.64492 -1.926494,-0.64492 -1.521351,0 -2.389513,1.12448 -0.859894,1.12448 -0.859894,3.1998 v 1.16582 q 0,1.95956 0.818553,3.11711 0.818553,1.15755 2.290295,1.15755 1.322914,0 2.025712,-0.59531 0.711066,-0.60358 0.942576,-2.09186 z" />
    </g>
    <g
       style="font-size:16.9333px;line-height:1.25;font-family:Discovery;-inkscape-font-specification:Discovery;letter-spacing:0px;word-spacing:0px;stroke-width:0.264583"
       id="text335"
       aria-label="H">
      <path
         id="path519"
         style="stroke-width:0.264583"
         d="m 108.54072,219.30672 h -1.59577 v -5.56451 h -6.06887 v 5.56451 H 99.288586 V 207.2682 h 1.587494 v 5.1759 h 6.06887 v -5.1759 h 1.59577 z" />
    </g>
    <g
       style="font-size:16.9333px;line-height:1.25;font-family:Discovery;-inkscape-font-specification:Discovery;letter-spacing:0px;word-spacing:0px;stroke-width:0.264583"
       id="text339"
       aria-label="T">
      <path
         id="path522"
         style="stroke-width:0.264583"
         d="m 126.59987,208.57458 h -3.86952 v 10.73214 h -1.57923 v -10.73214 h -3.86126 v -1.30638 h 9.31001 z" />
    </g>
    <g
       style="font-size:16.9333px;line-height:1.25;font-family:Discovery;-inkscape-font-specification:Discovery;letter-spacing:0px;word-spacing:0px;stroke-width:0.264583"
       id="text343"
       aria-label="Z">
      <path
         id="path525"
         style="stroke-width:0.264583"
         d="m 137.46979,218.00861 h 6.88742 v 1.29811 h -8.76431 v -1.19063 l 6.59804,-9.54151 h -6.49055 v -1.30638 h 8.39224 v 1.16582 z" />
    </g>
    <g
       style="font-size:16.9333px;line-height:1.25;font-family:Discovery;-inkscape-font-specification:Discovery;letter-spacing:0px;word-spacing:0px;stroke-width:0.264583"
       id="text347"
       aria-label="E">
      <path
         id="path528"
         style="stroke-width:0.264583"
         d="m 160.98596,213.74221 h -5.21725 v 4.2664 h 6.0606 v 1.29811 h -7.64809 V 207.2682 h 7.56541 v 1.30638 h -5.97792 v 3.86952 h 5.21725 z" />
    </g>
    <g
       style="font-size:16.9333px;line-height:1.25;font-family:Discovery;-inkscape-font-specification:Discovery;letter-spacing:0px;word-spacing:0px;stroke-width:0.264583"
       id="text351"
       aria-label="H">
      <path
         id="path531"
         style="stroke-width:0.264583"
         d="m 180.66156,219.30672 h -1.59577 v -5.56451 h -6.06886 v 5.56451 h -1.5875 V 207.2682 h 1.5875 v 5.1759 h 6.06886 v -5.1759 h 1.59577 z" />
    </g>
    <g
       style="font-size:16.9333px;line-height:1.25;font-family:Discovery;-inkscape-font-specification:Discovery;letter-spacing:0px;word-spacing:0px;stroke-width:0.264583"
       id="text355"
       aria-label="N">
      <path
         id="path534"
         style="stroke-width:0.264583"
         d="m 198.69174,219.30672 h -1.59576 l -6.0606,-9.27694 v 9.27694 h -1.59577 V 207.2682 h 1.59577 l 6.07713,9.31827 v -9.31827 h 1.57923 z" />
    </g>
    <g
       style="font-size:16.9333px;line-height:1.25;font-family:Discovery;-inkscape-font-specification:Discovery;letter-spacing:0px;word-spacing:0px;stroke-width:0.264583"
       id="text359"
       aria-label="R">
      <path
         id="path537"
         style="stroke-width:0.264583"
         d="m 209.32189,208.57458 h -1.59576 v -1.30638 h 3.98528 q 2.03398,0 3.12538,0.92604 1.09967,0.92604 1.09967,2.69544 0,1.12447 -0.61185,1.95956 -0.60358,0.83509 -1.68671,1.2485 l 2.82773,5.10976 v 0.0992 h -1.70325 l -2.61276,-4.86998 h -2.82773 v 4.86998 h -1.59576 v -6.16809 h 1.59576 2.43912 q 1.18236,0 1.87689,-0.61185 0.7028,-0.61185 0.7028,-1.6371 0,-1.11621 -0.66146,-1.71152 -0.67799,-0.60358 -1.92649,-0.60358 z" />
    </g>
    <g
       style="font-size:16.9333px;line-height:1.25;font-family:Discovery;-inkscape-font-specification:Discovery;letter-spacing:0px;word-spacing:0px;stroke-width:0.264583"
       id="text363"
       aria-label="S">
      <path
         id="path540"
         style="stroke-width:0.264583"
         d="m 230.03512,213.77529 q -2.04225,-0.58705 -2.97656,-1.43867 -0.92604,-0.8599 -0.92604,-2.11666 0,-1.42214 1.13275,-2.34818 1.14101,-0.9343 2.96002,-0.9343 1.24023,0 2.20761,0.47955 0.97565,0.47956 1.50482,1.32292 0.53743,0.84335 0.53743,1.84381 h -1.59576 q 0,-1.09141 -0.69453,-1.71152 -0.69453,-0.62839 -1.95957,-0.62839 -1.17409,0 -1.83554,0.5209 -0.65319,0.51263 -0.65319,1.4304 0,0.73587 0.62011,1.2485 0.62839,0.50436 2.12493,0.92604 1.50482,0.42168 2.34818,0.93431 0.85162,0.50436 1.25676,1.18235 0.41342,0.678 0.41342,1.59577 0,1.46347 -1.14102,2.34817 -1.14101,0.87643 -3.05097,0.87643 -1.24023,0 -2.3151,-0.47129 -1.07487,-0.47955 -1.66191,-1.30637 -0.57877,-0.82683 -0.57877,-1.87689 h 1.59576 q 0,1.09141 0.80202,1.72806 0.81028,0.62838 2.158,0.62838 1.25677,0 1.92649,-0.51263 0.66973,-0.51263 0.66973,-1.39732 0,-0.8847 -0.62012,-1.36426 -0.62011,-0.48782 -2.24895,-0.95911 z" />
    </g>
    <g
       style="font-size:16.9333px;line-height:1.25;font-family:Discovery;-inkscape-font-specification:Discovery;letter-spacing:0px;word-spacing:0px;stroke-width:0.264583"
       id="text367"
       aria-label="S">
      <path
         id="path543"
         style="stroke-width:0.264583"
         d="m 67.763308,233.50708 q -2.042249,-0.58704 -2.976557,-1.43867 -0.92604,-0.85989 -0.92604,-2.11666 0,-1.42213 1.132745,-2.34817 1.141014,-0.93431 2.960021,-0.93431 1.240231,0 2.207612,0.47956 0.975649,0.47955 1.504815,1.32291 0.537434,0.84336 0.537434,1.84381 h -1.595765 q 0,-1.0914 -0.69453,-1.71152 -0.69453,-0.62838 -1.959566,-0.62838 -1.174087,0 -1.835544,0.5209 -0.653189,0.51263 -0.653189,1.4304 0,0.73587 0.620116,1.2485 0.628385,0.50436 2.124931,0.92604 1.504815,0.42168 2.348173,0.93431 0.851626,0.50436 1.256768,1.18235 0.413411,0.67799 0.413411,1.59576 0,1.46348 -1.141014,2.34818 -1.141013,0.87643 -3.05097,0.87643 -1.240232,0 -2.3151,-0.47129 -1.074868,-0.47956 -1.661911,-1.30638 -0.578775,-0.82682 -0.578775,-1.87688 h 1.595765 q 0,1.0914 0.802017,1.72805 0.810285,0.62839 2.158004,0.62839 1.256768,0 1.926493,-0.51263 0.669726,-0.51263 0.669726,-1.39733 0,-0.8847 -0.620116,-1.36425 -0.620116,-0.48783 -2.248954,-0.95912 z" />
    </g>
    <g
       style="font-size:16.9333px;line-height:1.25;font-family:Discovery;-inkscape-font-specification:Discovery;letter-spacing:0px;word-spacing:0px;stroke-width:0.264583"
       id="text371"
       aria-label="E">
      <path
         id="path546"
         style="stroke-width:0.264583"
         d="m 88.865138,233.47401 h -5.217242 v 4.26639 h 6.0606 v 1.29811 H 82.060399 V 227 h 7.565414 v 1.30637 h -5.977917 v 3.86953 h 5.217242 z" />
    </g>
    <g
       style="font-size:16.9333px;line-height:1.25;font-family:Discovery;-inkscape-font-specification:Discovery;letter-spacing:0px;word-spacing:0px;stroke-width:0.264583"
       id="text375"
       aria-label="C">
      <path
         id="path549"
         style="stroke-width:0.264583"
         d="m 108.54899,235.05324 q -0.22325,1.90996 -1.41387,2.95175 -1.18235,1.03353 -3.15019,1.03353 -2.1332,0 -3.42304,-1.52962 -1.281571,-1.52962 -1.281571,-4.09277 v -1.15755 q 0,-1.67844 0.595312,-2.95175 0.603579,-1.2733 1.703249,-1.9513 1.09967,-0.68626 2.54661,-0.68626 1.91823,0 3.07578,1.07487 1.15755,1.0666 1.34772,2.96002 h -1.59577 q -0.2067,-1.43867 -0.90123,-2.08359 -0.68627,-0.64492 -1.9265,-0.64492 -1.52135,0 -2.38951,1.12448 -0.8599,1.12447 -0.8599,3.19979 v 1.16582 q 0,1.95957 0.81856,3.11712 0.81855,1.15755 2.29029,1.15755 1.32292,0 2.02571,-0.59531 0.71107,-0.60358 0.94258,-2.09186 z" />
    </g>
    <g
       style="font-size:16.9333px;line-height:1.25;font-family:Discovery;-inkscape-font-specification:Discovery;letter-spacing:0px;word-spacing:0px;stroke-width:0.264583"
       id="text379"
       aria-label="H">
      <path
         id="path552"
         style="stroke-width:0.264583"
         d="m 126.57093,239.03851 h -1.59577 v -5.5645 h -6.06886 v 5.5645 h -1.5875 V 227 h 1.5875 v 5.1759 h 6.06886 V 227 h 1.59577 z" />
    </g>
    <g
       style="font-size:16.9333px;line-height:1.25;font-family:Discovery;-inkscape-font-specification:Discovery;letter-spacing:0px;word-spacing:0px;stroke-width:0.264583"
       id="text383"
       aria-label="S">
      <path
         id="path555"
         style="stroke-width:0.264583"
         d="m 139.8841,233.50708 q -2.04224,-0.58704 -2.97655,-1.43867 -0.92604,-0.85989 -0.92604,-2.11666 0,-1.42213 1.13274,-2.34817 1.14102,-0.93431 2.96002,-0.93431 1.24023,0 2.20762,0.47956 0.97564,0.47955 1.50481,1.32291 0.53743,0.84336 0.53743,1.84381 h -1.59576 q 0,-1.0914 -0.69453,-1.71152 -0.69453,-0.62838 -1.95957,-0.62838 -1.17408,0 -1.83554,0.5209 -0.65319,0.51263 -0.65319,1.4304 0,0.73587 0.62012,1.2485 0.62838,0.50436 2.12493,0.92604 1.50481,0.42168 2.34817,0.93431 0.85163,0.50436 1.25677,1.18235 0.41341,0.67799 0.41341,1.59576 0,1.46348 -1.14101,2.34818 -1.14102,0.87643 -3.05098,0.87643 -1.24023,0 -2.31509,-0.47129 -1.07487,-0.47956 -1.66192,-1.30638 -0.57877,-0.82682 -0.57877,-1.87688 h 1.59576 q 0,1.0914 0.80202,1.72805 0.81029,0.62839 2.158,0.62839 1.25677,0 1.9265,-0.51263 0.66972,-0.51263 0.66972,-1.39733 0,-0.8847 -0.62011,-1.36425 -0.62012,-0.48783 -2.24896,-0.95912 z" />
    </g>
    <g
       style="font-size:16.9333px;line-height:1.25;font-family:Discovery;-inkscape-font-specification:Discovery;letter-spacing:0px;word-spacing:0px;stroke-width:0.264583"
       id="text387"
       aria-label="F">
      <path
         id="path558"
         style="stroke-width:0.264583"
         d="m 160.91567,233.72205 h -5.05188 v 5.31646 H 154.2763 V 227 h 7.45792 v 1.30637 h -5.87043 v 4.11757 h 5.05188 z" />
    </g>
    <g
       style="font-size:16.9333px;line-height:1.25;font-family:Discovery;-inkscape-font-specification:Discovery;letter-spacing:0px;word-spacing:0px;stroke-width:0.264583"
       id="text391"
       aria-label="M">
      <path
         id="path561"
         style="stroke-width:0.264583"
         d="m 172.09569,227 3.93567,9.82263 L 179.96703,227 h 2.05878 v 12.03851 h -1.5875 v -4.68807 l 0.14883,-5.06015 -3.9522,9.74822 h -1.21543 l -3.94394,-9.72342 0.1571,5.03535 v 4.68807 h -1.5875 V 227 Z" />
    </g>
    <g
       style="font-size:16.9333px;line-height:1.25;font-family:Discovery;-inkscape-font-specification:Discovery;letter-spacing:0px;word-spacing:0px;stroke-width:0.264583"
       id="text395"
       aria-label="U">
      <path
         id="path564"
         style="stroke-width:0.264583"
         d="m 198.42303,226.83464 v 8.18553 q -0.008,1.70325 -1.07487,2.78638 -1.05833,1.08314 -2.87734,1.21543 l -0.42168,0.0165 q -1.9761,0 -3.15019,-1.0666 -1.17408,-1.0666 -1.19062,-2.93522 v -8.20206 h 1.57096 v 8.15245 q 0,1.30638 0.71934,2.03398 0.71933,0.71934 2.05051,0.71934 1.34772,0 2.05879,-0.71934 0.71933,-0.71933 0.71933,-2.02571 v -8.16072 z" />
    </g>
    <g
       style="font-size:16.9333px;line-height:1.25;font-family:Discovery;-inkscape-font-specification:Discovery;letter-spacing:0px;word-spacing:0px;stroke-width:0.264583"
       id="text399"
       aria-label="H">
      <path
         id="path567"
         style="stroke-width:0.264583"
         d="m 216.72195,239.03851 h -1.59576 v -5.5645 h -6.06887 v 5.5645 h -1.5875 V 227 h 1.5875 v 5.1759 h 6.06887 V 227 h 1.59576 z" />
    </g>
    <g
       style="font-size:16.9333px;line-height:1.25;font-family:Discovery;-inkscape-font-specification:Discovery;letter-spacing:0px;word-spacing:0px;stroke-width:0.264583"
       id="text403"
       aria-label="R">
      <path
         id="path570"
         style="stroke-width:0.264583"
         d="m 227.35209,228.30637 h -1.59577 V 227 h 3.98528 q 2.03398,0 3.12539,0.92604 1.09967,0.92603 1.09967,2.69543 0,1.12448 -0.61185,1.95957 -0.60358,0.83509 -1.68671,1.2485 l 2.82772,5.10975 v 0.0992 h -1.70325 l -2.61275,-4.86997 h -2.82773 v 4.86997 h -1.59577 v -6.16808 h 1.59577 2.43912 q 1.18236,0 1.87689,-0.61185 0.70279,-0.61185 0.70279,-1.63711 0,-1.11621 -0.66145,-1.71152 -0.678,-0.60358 -1.9265,-0.60358 z" />
    </g>
    <ellipse
       ry="2.549722"
       rx="2.5497222"
       cy="14.5"
       cx="14.5"
       id="path1230"
       style="fill:#ffffff;stroke:#000000;stroke-width:0.900556;stroke-miterlimit:4;stroke-dasharray:none" />
    <ellipse
       style="fill:#ffffff;stroke:#000000;stroke-width:0.900557;stroke-miterlimit:4;stroke-dasharray:none"
       id="path1230-2"
       cx="14.500001"
       cy="265.5"
       rx="2.5497222"
       ry="2.549722" />
    <ellipse
       ry="2.549722"
       rx="2.5497222"
       cy="265.5"
       cx="265.5"
       id="path1230-2-1"
       style="fill:#ffffff;stroke:#000000;stroke-width:0.900557;stroke-miterlimit:4;stroke-dasharray:none" />
    <ellipse
       style="fill:#ffffff;stroke:#000000;stroke-width:0.900557;stroke-miterlimit:4;stroke-dasharray:none"
       id="path1230-2-1-2"
       cx="265.5"
       cy="14.5"
       rx="2.5497222"
       ry="2.549722" />
  </g>
</svg>
